<?xml version="1.0" encoding="utf-8"?>
<!-- Generator: Adobe Illustrator 14.0.0, SVG Export Plug-In . SVG Version: 6.00 Build 43363)  -->
<!DOCTYPE svg PUBLIC "-//W3C//DTD SVG 1.1//EN" "http://www.w3.org/Graphics/SVG/1.1/DTD/svg11.dtd">
<svg version="1.1" id="Layer_1" xmlns="http://www.w3.org/2000/svg" xmlns:xlink="http://www.w3.org/1999/xlink" x="0px" y="0px"
	 width="313.5px" height="47.875px" viewBox="0 0 313.5 47.875" enable-background="new 0 0 313.5 47.875" xml:space="preserve">
<g id="Layer_1_1_">
	<text transform="matrix(1 0 0 1 -3.875 34.75)" font-family="'OpenSans-Bold'" font-size="48" letter-spacing="-1">Brew</text>
	<text transform="matrix(1 0 0 1 156.6982 35.1172)" font-family="'OpenSans-Bold'" font-size="48" letter-spacing="-1">Keeper</text>
</g>
<g id="Layer_2">
	<path fill="#33B55D" d="M154.001,5.618c-2.281-1.464-2.919-1.585-7.139-0.515V1.716c0-0.212-0.171-0.385-0.384-0.385H118.53
		c-0.212,0-0.384,0.172-0.384,0.385v26.437c0,3.964,3.214,7.181,7.179,7.181h14.358c3.965,0,7.18-3.215,7.18-7.181v-1.069
		c2.136-1.187,5.272-3.404,7.503-7.057C158.056,13.978,156.85,7.447,154.001,5.618z M153.732,13.817
		c-0.896,3.664-2.82,7.085-5.552,8.742c-0.422,0.256-0.858,0.467-1.318,0.633v-12.55c0.333-0.854,1.386-3.125,3.217-3.36
		c0.952-0.123,1.954,0.185,2.71,0.931C153.826,9.234,154.4,11.083,153.732,13.817z"/>
</g>
</svg>
