<?xml version="1.0" encoding="utf-8"?>
<!-- Generator: Adobe Illustrator 14.0.0, SVG Export Plug-In . SVG Version: 6.00 Build 43363)  -->
<!DOCTYPE svg PUBLIC "-//W3C//DTD SVG 1.1//EN" "http://www.w3.org/Graphics/SVG/1.1/DTD/svg11.dtd">
<svg version="1.1" id="Layer_1" xmlns="http://www.w3.org/2000/svg" xmlns:xlink="http://www.w3.org/1999/xlink" x="0px" y="0px"
	 width="600px" height="600px" viewBox="0 0 600 600" enable-background="new 0 0 600 600" xml:space="preserve">
<path fill="#595959" d="M537.623,66.395c-32.208-20.678-41.203-22.386-100.778-7.266V11.301c0-2.997-2.42-5.428-5.428-5.428H36.858
	c-2.991,0-5.422,2.431-5.422,5.428v373.212c0,55.964,45.375,101.366,101.349,101.366H335.49
	c55.979,0,101.365-45.397,101.365-101.366V369.41c30.152-16.74,74.444-48.051,105.929-99.621
	C594.865,184.414,577.831,92.201,537.623,66.395z M533.838,182.14c-12.672,51.716-39.827,100.028-78.377,123.403
	c-5.949,3.605-12.139,6.608-18.616,8.947V137.32c4.704-12.052,19.562-44.118,45.407-47.447c13.434-1.729,27.585,2.616,38.261,13.146
	C535.159,117.447,543.273,143.553,533.838,182.14z"/>
</svg>
