<?xml version="1.0" encoding="utf-8"?>
<!-- Generator: Adobe Illustrator 14.0.0, SVG Export Plug-In . SVG Version: 6.00 Build 43363)  -->
<!DOCTYPE svg PUBLIC "-//W3C//DTD SVG 1.1//EN" "http://www.w3.org/Graphics/SVG/1.1/DTD/svg11.dtd">
<svg version="1.1" id="Layer_1" xmlns="http://www.w3.org/2000/svg" xmlns:xlink="http://www.w3.org/1999/xlink" x="0px" y="0px"
	 width="600px" height="600px" viewBox="0 0 600 600" enable-background="new 0 0 600 600" xml:space="preserve">
<path fill="#BFBFBF" d="M169.762,447.514c-0.994-0.239-1.992-0.437-2.971-0.706c-8.328-2.326-13.954-9.59-14.199-18.312
	c-0.009-0.37-0.004-0.739-0.004-1.109c0-87.479,0-174.95,0-262.425c0-8.515,3.749-14.832,11.477-18.398
	c12.653-5.827,27.154,3.557,27.202,17.511c0.058,18.168,0.014,36.331,0.014,54.499c0,62.741,0,125.482,0,188.222
	c0,0.602,0,1.19,0,1.877c72.519,0,144.917,0,217.474,0c0-0.696,0-1.334,0-1.973c0-80.486,0.005-160.973-0.02-241.459
	c0-6.883,2.399-12.619,8.045-16.656c6.234-4.469,13.064-5.088,19.93-1.675c6.917,3.437,10.411,9.317,10.795,17.03
	c0.016,0.375,0.005,0.744,0.005,1.119c0.005,87.427,0.005,174.859,0,262.286c0,8.578-4.469,15.614-11.952,18.678
	c-1.606,0.667-3.351,1.013-5.029,1.508C343.604,447.514,256.685,447.514,169.762,447.514z"/>
<path fill="#BFBFBF" d="M495.36,103.747c-0.235,1.085-0.424,2.184-0.701,3.254c-2.185,8.266-9.27,14.001-17.812,14.443
	c-0.514,0.024-1.021,0.034-1.541,0.034c-116.842,0-233.688,0-350.53,0c-9.552,0-17.217-5.803-19.421-14.736
	c-0.355-1.435-0.475-2.928-0.706-4.392c0-0.188,0-0.375,0-0.557c0.135-0.965,0.226-1.929,0.403-2.885
	c1.805-9.648,9.6-16.128,19.411-16.128c37.68,0,75.36,0,113.04,0c0.585,0,1.171,0,1.843,0c0-0.701,0-1.205,0-1.708
	c0-12.062-0.014-24.13,0.01-36.192c0.009-5.933,3.859-10.728,9.552-11.995c0.811-0.183,1.642-0.269,2.467-0.398
	c32.51,0,65.03,0,97.541,0c0.221,0.062,0.437,0.158,0.662,0.188c6.989,0.945,11.112,5.659,11.112,12.701
	c0.01,11.875,0,23.746,0,35.621c0,0.542,0,1.09,0,1.786c0.747,0,1.344,0,1.935,0c37.713,0,75.427-0.005,113.15,0
	c9.014,0,16.646,5.871,18.896,14.51c0.288,1.114,0.465,2.256,0.691,3.384C495.36,101.698,495.36,102.72,495.36,103.747z
	 M263.63,56.861c0,8.683,0,17.227,0,25.838c24.312,0,48.538,0,72.826,0c0-8.649,0-17.227,0-25.838
	C312.148,56.861,287.961,56.861,263.63,56.861z"/>
<path fill="#BFBFBF" d="M369.586,273.845c0,31.67,0.005,63.34,0,95.006c-0.005,6.754-4.987,12.109-11.486,12.402
	c-6.874,0.298-12.461-4.91-12.721-11.875c-0.005-0.234,0-0.465,0-0.701c0-63.195-0.005-126.393,0-189.585
	c0-6.149,3.648-10.92,9.355-12.302c7.28-1.762,14.539,3.725,14.837,11.217c0.023,0.509,0.015,1.022,0.015,1.536
	C369.586,210.979,369.586,242.419,369.586,273.845z"/>
<path fill="#BFBFBF" d="M253.963,272.822c0,31.479-0.02,62.958,0.019,94.439c0.005,4.873-1.738,8.736-5.938,11.267
	c-7.901,4.768-17.957-0.807-18.221-10.026c-0.01-0.327-0.015-0.653-0.015-0.979c0-63.101,0.005-126.196-0.014-189.296
	c0-4.306,1.459-7.853,4.949-10.397c3.864-2.817,8.117-3.211,12.398-1.138c4.224,2.045,6.504,5.563,6.797,10.296
	c0.043,0.696,0.028,1.397,0.028,2.093C253.968,210.326,253.963,241.574,253.963,272.822z"/>
<path fill="#BFBFBF" d="M312.096,273.326c0,31.666,0.011,63.332,0,94.997c0,6.293-3.987,11.132-10.056,12.265
	c-6.965,1.305-13.829-4.211-14.069-11.3c-0.014-0.417-0.014-0.835-0.014-1.263c0-63.139,0-126.292,0-189.433
	c0-6.278,3.72-11.069,9.585-12.375c7.084-1.584,14.131,3.753,14.525,10.997c0.038,0.6,0.027,1.205,0.027,1.814
	C312.096,210.466,312.096,241.896,312.096,273.326z"/>
</svg>
