<?xml version="1.0" encoding="utf-8"?>
<!-- Generator: Adobe Illustrator 14.0.0, SVG Export Plug-In . SVG Version: 6.00 Build 43363)  -->
<!DOCTYPE svg PUBLIC "-//W3C//DTD SVG 1.1//EN" "http://www.w3.org/Graphics/SVG/1.1/DTD/svg11.dtd">
<svg version="1.1" id="Layer_1" xmlns="http://www.w3.org/2000/svg" xmlns:xlink="http://www.w3.org/1999/xlink" x="0px" y="0px"
	 width="600px" height="600px" viewBox="0 0 600 600" enable-background="new 0 0 600 600" xml:space="preserve">
<path fill="#BFBFBF" d="M482.4,94.56L445.44,57.6C439.2,51.36,430.56,48,421.92,48c-9.12,0-17.28,3.36-23.52,9.6l-18.24,18.24l0,0
	L186.72,269.28c-0.48,0.48-0.96,0.96-0.96,1.44c0,0,0,0.48-0.48,0.48c-0.48,0.48-0.48,0.96-0.96,1.44c0,0,0,0,0,0.48
	s0,0.48-0.48,0.96l-26.4,96.48c-0.96,3.358,0,7.198,2.4,9.6c1.92,1.92,4.32,2.88,7.2,2.88c0.96,0,1.92,0,2.4-0.479l96.96-26.881
	c0.48,0,0.48,0,0.96-0.479c0,0,0,0,0.48,0s0.96-0.479,1.44-0.96c0,0,0.48,0,0.48-0.479c0.48-0.479,0.96-0.479,1.44-0.961
	l192.96-192.96l18.24-18.24C495.36,129.12,495.36,107.52,482.4,94.56z M204,352.32L187.68,336l11.04-40.8l46.08,46.079L204,352.32z
	 M207.84,276L386.88,96.96l4.8,4.8L408,118.08L228.96,297.12L207.84,276z M264,332.16l-21.12-21.12L421.92,132l21.12,21.12
	L264,332.16z M468,128.16l-11.04,11.04L400.8,83.04l11.521-11.52c2.398-2.4,5.76-3.84,9.6-3.84s7.2,1.44,9.601,3.84l36.961,36.96
	C473.28,114.24,473.28,122.88,468,128.16z M440.16,226.08c-5.28,0-10.08,4.32-10.08,10.08v161.28c0,8.158-6.72,14.88-14.88,14.88
	H142.56c-8.16,0-14.88-6.722-14.88-14.88V124.32c0-8.16,6.72-14.88,14.88-14.88h161.28c5.28,0,10.08-4.32,10.08-10.08
	c0-5.76-4.32-10.08-10.08-10.08H142.56c-19.2,0-34.56,15.36-34.56,34.56V396.48c0,19.198,15.36,34.56,34.56,34.56H415.2
	c19.2,0,34.56-15.36,34.56-34.56V236.16C450.24,230.88,445.92,226.08,440.16,226.08z"/>
</svg>
