<svg xmlns="http://www.w3.org/2000/svg" xmlns:xlink="http://www.w3.org/1999/xlink" xmlns:sketch="http://www.bohemiancoding.com/sketch/ns" viewBox="0 0 120 168.75" version="1.1" x="0px" y="0px"><title>filter</title><desc>Created with Sketch.</desc><g stroke="none" stroke-width="1" fill="none" fill-rule="evenodd" sketch:type="MSPage"><g sketch:type="MSArtboardGroup" transform="translate(-254.000000, -247.000000)" fill="#000000"><path d="M374,251.928474 C374,252.521956 373.376,253 372.597333,253 L255.404444,253 C254.625778,253 254,252.521956 254,251.928474 L254,248.071526 C254,247.476686 254.625778,247 255.404444,247 L372.597333,247 C373.376,247 374,247.476686 374,248.071526 L374,251.928474 Z M361.992809,272.071526 C361.992809,271.476686 361.359997,271 360.574375,271 L270.418434,271 C269.632812,271 269,271.476686 269,272.071526 L269,275.928474 C269,276.521956 269.632812,277 270.418434,277 L360.581566,277 C361.367188,277 362,276.521956 362,275.928474 L362,272.071526 L361.992809,272.071526 Z M344,296.071526 C344,295.478044 343.383332,295 342.617753,295 L282.382247,295 C281.616668,295 281,295.478044 281,296.071526 L281,299.928474 C281,300.521956 281.616668,301 282.382247,301 L342.610745,301 C343.376324,301 343.992992,300.521956 343.992992,299.928474 L343.992992,296.071526 L344,296.071526 Z M332,320.071526 C332,319.478044 331.374053,319 330.592956,319 L297.407044,319 C296.625947,319 296,319.478044 296,320.071526 L296,323.928474 C296,324.523314 296.625947,325 297.407044,325 L330.592956,325 C331.374053,325 332,324.523314 332,323.928474 L332,320.071526 Z M311,340 L317,340 L317,382 L311,382 L311,340 Z" sketch:type="MSShapeGroup"/></g></g></svg>
