<svg xmlns="http://www.w3.org/2000/svg" xmlns:xlink="http://www.w3.org/1999/xlink" version="1.0" x="0px" y="0px" viewBox="0 0 50 62.5" enable-background="new 0 0 50 50" xml:space="preserve"><path fill="#000000" d="M44.85,39.677c-0.072-0.137-0.391-0.604-0.404-0.623c-0.203-0.298-0.482-0.699-0.877-1.265  c-0.662-0.941-6.521-9.884-8.223-12.188l-18.257,0.234l-2.411,3.721c-0.164,0.242-0.326,0.485-0.49,0.729  c-1.662,2.472-3.346,4.946-4.576,6.754c-1.002,1.473-1.802,2.445-1.929,2.646C7.186,40.452,7,41.409,7,43.265v0.281v0.311  c0,1.008,0.598,2.097,1.402,2.864C9.207,47.49,10.41,48,11.462,48h29.372c1.063,0,2.16-0.523,3.021-1.314  c0.854-0.779,1.359-1.847,1.355-2.796c0-0.406,0.006-0.801,0.01-1.135c0.006-0.289,0.01-0.562,0.01-0.806  C45.23,40.977,45.168,40.286,44.85,39.677z M17.845,37.511c-1.117,0-2.027-0.908-2.027-2.025c0-1.119,0.91-2.027,2.027-2.027  c1.119,0,2.027,0.908,2.027,2.027C19.873,36.603,18.964,37.511,17.845,37.511z M23.986,33.101c-1.381,0-2.502-1.121-2.502-2.502  c0-1.379,1.121-2.5,2.502-2.5c1.379,0,2.502,1.121,2.502,2.5C26.488,31.979,25.365,33.101,23.986,33.101z M44.848,39.677h0.002l0,0  H44.848z"/><path fill="#000000" d="M24.462,13.022c-1.056,0-1.914-0.858-1.914-1.914s0.858-1.914,1.914-1.914s1.915,0.858,1.915,1.914  S25.518,13.022,24.462,13.022z M24.462,10.194c-0.504,0-0.914,0.41-0.914,0.914s0.41,0.914,0.914,0.914s0.914-0.41,0.914-0.914  S24.966,10.194,24.462,10.194z"/><path fill="#000000" d="M29.221,8.812c-1.307,0-2.369-1.063-2.369-2.37s1.063-2.37,2.369-2.37s2.371,1.063,2.371,2.37  S30.527,8.812,29.221,8.812z M29.221,5.071c-0.756,0-1.369,0.615-1.369,1.37s0.613,1.37,1.369,1.37s1.371-0.615,1.371-1.37  S29.977,5.071,29.221,5.071z"/><path fill="#000000" d="M23.986,6.636c-1.547,0-2.807-1.258-2.807-2.805c0-1.547,1.259-2.806,2.807-2.806  c1.546,0,2.805,1.259,2.805,2.806C26.791,5.377,25.532,6.636,23.986,6.636z M23.986,2.025c-0.996,0-1.807,0.81-1.807,1.806  c0,0.995,0.811,1.805,1.807,1.805c0.995,0,1.805-0.81,1.805-1.805C25.791,2.835,24.981,2.025,23.986,2.025z"/><path fill="#000000" d="M46.418,38.859L46.418,38.859c-0.123-0.233-0.432-0.695-1.08-1.629c-0.65-0.932-1.637-2.323-3.09-4.371  c-1.367-1.926-3.297-4.646-4.984-7.069c-1.611-2.309-2.889-4.363-3.35-5.165L34,20.56V10h3V8h-5v0.612c0,0.014,0,0.027,0,0.04V16h-4  v1h4v3.171c0,0.445-0.053,0.713-0.055,0.715c0.014,0.154-0.007,0.119,0.044,0.254c0.137,0.299,0.45,0.83,0.931,1.567  c0.363,0.556,0.803,1.419,1.309,2.161c0,0,0.25,0.132,0.646,1.132H30v1h5.602c1.219,2,2.9,3.974,3.57,4.921l0.461,0.538l1.072,1.456  L40.777,34H36v1h5.42c0.795,1,1.508,2.084,2.07,2.887c0.359,0.512,0.658,0.92,0.877,1.242c0.109,0.158,0.201,0.288,0.27,0.392  c0.07,0.109,0.037,0.155,0.061,0.204C45.006,40.314,45,40.968,45,41.922l0,0v0.008v0.01c0,0.538,0,1.167,0,1.917v0.01  c0,0.971-0.465,2.062-1.268,2.796C42.938,47.393,41.932,48,40.863,48h-0.002H11.462c-1.078,0-2.286-0.578-3.042-1.299  C7.665,45.979,7,44.886,7,43.858c0,0,0,0,0-0.007l0.002-0.002C7,43.644,7,43.449,7,43.263c0-0.065,0-0.13,0-0.194  c0-1.673,0.233-2.581,0.716-3.335c0.287-0.456,3.457-4.94,6.457-9.396c1.5-2.23,3.026-4.456,4.134-6.172  c0.555-0.859,1.039-1.591,1.361-2.135c0.162-0.272,0.301-0.496,0.389-0.671c0.045-0.087-0.025-0.159-0.003-0.21  C20.094,21.032,20,21.063,20,20.947c0,0,0-10.668,0-12.342l0,0V8h-5v2h3v10.62l0.145,0.062c-0.541,0.99-2.366,3.908-4.434,6.997  c-2.145,3.207-4.42,6.617-5.588,8.334c-1.145,1.684-1.929,2.497-2.073,2.725C5.258,39.989,5,41.28,5,43.27c0,0.046,0,0.091,0,0.139  c0,0.044,0,0.091,0,0.142v0.305C5,46.95,8.285,50,11.466,50h29.368c1.5,0,3.029-0.811,4.217-1.895  c1.221-1.119,1.93-2.688,1.93-4.156c0-0.391,0.006-0.792,0.01-1.132c0.004-0.291,0.01-0.611,0.01-0.875v-0.018  C47,40.774,46.918,39.817,46.418,38.859z"/></svg>
