<?xml version="1.0" encoding="utf-8"?>
<!-- Generator: Adobe Illustrator 14.0.0, SVG Export Plug-In . SVG Version: 6.00 Build 43363)  -->
<!DOCTYPE svg PUBLIC "-//W3C//DTD SVG 1.1//EN" "http://www.w3.org/Graphics/SVG/1.1/DTD/svg11.dtd">
<svg version="1.1" id="Layer_1" xmlns="http://www.w3.org/2000/svg" xmlns:xlink="http://www.w3.org/1999/xlink" x="0px" y="0px"
	 width="600px" height="600px" viewBox="0 0 600 600" enable-background="new 0 0 600 600" xml:space="preserve">
<path fill="#DBE3FF" d="M300,456c71.52,0,144-44.64,144-144c0-63.84-34.56-117.12-71.04-173.28
	c-22.08-33.6-44.16-68.16-61.92-107.52C309.12,26.88,304.8,24,300,24l0,0c-4.8,0-9.12,2.88-11.04,7.2
	c-17.76,39.36-39.84,73.92-61.92,107.52C190.56,194.88,156,248.16,156,312C156,411.36,228.48,456,300,456z M247.68,151.68
	c17.76-27.84,36.48-56.16,52.8-87.84c16.32,31.68,34.56,60,52.8,87.84C388.8,207.36,420,255.36,420,312c0,83.04-60.48,120-120,120
	c-59.52,0-120-36.96-120-120C180,255.36,211.2,207.36,247.68,151.68z"/>
<path fill="#DBE3FF" d="M300,408c6.72,0,12-5.28,12-12c0-6.721-5.28-12-12-12c-21.6,0-72-7.2-72-72c0-6.721-5.28-12-12-12
	s-12,5.279-12,12C204,382.561,253.44,408,300,408z"/>
</svg>
