<?xml version="1.0" encoding="utf-8"?>
<!-- Generator: Adobe Illustrator 14.0.0, SVG Export Plug-In . SVG Version: 6.00 Build 43363)  -->
<!DOCTYPE svg PUBLIC "-//W3C//DTD SVG 1.1//EN" "http://www.w3.org/Graphics/SVG/1.1/DTD/svg11.dtd">
<svg version="1.1" id="Layer_1" xmlns="http://www.w3.org/2000/svg" xmlns:xlink="http://www.w3.org/1999/xlink" x="0px" y="0px"
	 width="600px" height="600px" viewBox="0 0 600 600" enable-background="new 0 0 600 600" xml:space="preserve">
<g>
	<path fill="#BFBFBF" d="M257.771,291.371c15.232,15.227,39.915,15.227,55.131,0c15.237-15.227,54.715-109.84,54.715-109.84
		s-94.614,39.461-109.846,54.693C242.539,251.451,242.539,276.139,257.771,291.371z"/>
	<path fill="#BFBFBF" d="M452.331,100.811l38.395,29.707l34.773-36.149c0,0-14.523-22.069-37.419-44.085
		c-22.896-22.027-46.128-36.261-46.128-36.261l-34.773,36.149l31.925,38.165l-14.117,14.688
		c-37.632-35.04-88.026-56.528-143.36-56.528c-116.096,0-210.565,94.453-210.565,210.565s94.469,210.565,210.565,210.565
		c116.101,0,210.566-94.453,210.566-210.565c0-54.235-20.619-103.739-54.422-141.109L452.331,100.811z M422.576,391.552
		l-20.561-20.549c-2.277-2.294-5.983-2.294-8.277,0c-2.277,2.288-2.277,5.983,0,8.277l20.523,20.507
		c-33.488,31.146-77.899,50.655-126.79,52.106v-40.8c0-3.228-2.619-5.846-5.846-5.846c-3.227,0-5.845,2.613-5.845,5.846v40.794
		c-48.901-1.445-93.317-20.96-126.805-52.106l20.517-20.522c2.293-2.288,2.293-5.984,0-8.277c-2.288-2.277-5.989-2.277-8.261,0
		l-20.565,20.56c-31.781-33.279-51.904-77.732-53.824-126.821h42.053c3.243,0,5.861-2.614,5.861-5.846s-2.619-5.845-5.861-5.845
		H86.763c1.008-49.605,20.603-94.699,52.144-128.597l22.331,22.314c1.136,1.152,2.629,1.717,4.123,1.717
		c1.494,0,3.003-0.565,4.139-1.717c2.293-2.277,2.293-5.989,0-8.261l-22.368-22.368c33.701-32.165,78.853-52.389,128.656-53.867
		v43.403c0,3.227,2.619,5.845,5.845,5.845c3.227,0,5.846-2.613,5.846-5.845V62.25c49.803,1.478,94.954,21.702,128.64,53.867
		l-22.368,22.352c-2.277,2.293-2.277,5.989,0,8.277c1.152,1.136,2.646,1.707,4.139,1.707c1.504,0,3.003-0.57,4.134-1.707
		l22.314-22.331c31.541,33.904,51.152,79.008,52.16,128.613h-42.134c-3.242,0-5.861,2.613-5.861,5.845s2.613,5.846,5.861,5.846
		H476.4C474.485,313.809,454.347,358.277,422.576,391.552z"/>
</g>
</svg>
