<?xml version="1.0" encoding="utf-8"?>
<!-- Generator: Adobe Illustrator 14.0.0, SVG Export Plug-In . SVG Version: 6.00 Build 43363)  -->
<!DOCTYPE svg PUBLIC "-//W3C//DTD SVG 1.1//EN" "http://www.w3.org/Graphics/SVG/1.1/DTD/svg11.dtd">
<svg version="1.1"
	 id="Layer_1" xmlns:dc="http://purl.org/dc/elements/1.1/" xmlns:cc="http://creativecommons.org/ns#" xmlns:svg="http://www.w3.org/2000/svg" xmlns:rdf="http://www.w3.org/1999/02/22-rdf-syntax-ns#"
	 xmlns="http://www.w3.org/2000/svg" xmlns:xlink="http://www.w3.org/1999/xlink" x="0px" y="0px" width="600px" height="600px"
	 viewBox="0 0 600 600" enable-background="new 0 0 600 600" xml:space="preserve">
<g transform="translate(0,-952.36216)">
	<path fill="#EDE8E1" d="M307.389,976.362c11.643,28.351,22.924,56.832,26.838,88.259c4.724,37.922-1.533,79.714-28.752,127.651
		c-47.542,83.732-21.724,160.759,3.694,216.089c82.803-6.707,147.474-101.432,147.501-216.046
		C456.557,1076.835,390.867,981.807,307.389,976.362L307.389,976.362z M283.265,977.342
		c-79.515,11.804-139.833,104.469-139.935,214.977c0.003,110.94,60.698,203.923,140.558,215.333
		c-24.861-57.477-47.577-139.787,1.737-226.638c25.209-44.401,30.176-79.999,25.993-113.584
		C307.85,1037.18,295.909,1008.074,283.265,977.342L283.265,977.342z"/>
</g>
</svg>
