<?xml version="1.0" encoding="utf-8"?><!DOCTYPE svg PUBLIC "-//W3C//DTD SVG 1.1//EN" "http://www.w3.org/Graphics/SVG/1.1/DTD/svg11.dtd"><svg version="1.1" xmlns="http://www.w3.org/2000/svg" xmlns:xlink="http://www.w3.org/1999/xlink" x="0px" y="0px" viewBox="3.369 5.873 100 110.32125" enable-background="new 3.369 5.873 100 88.257" xml:space="preserve"><path d="M96.441,17.001c-5.922-3.802-7.576-4.116-18.53-1.336V6.871c0-0.551-0.445-0.998-0.998-0.998H4.366
	c-0.55,0-0.997,0.447-0.997,0.998v68.622c0,10.29,8.343,18.638,18.635,18.638h37.271c10.293,0,18.638-8.347,18.638-18.638v-2.777
	c5.544-3.078,13.688-8.835,19.477-18.317C106.966,38.701,103.834,21.746,96.441,17.001z M95.745,38.283
	c-2.33,9.509-7.323,18.392-14.411,22.69c-1.094,0.663-2.232,1.215-3.423,1.645V30.042c0.865-2.216,3.597-8.112,8.349-8.724
	c2.47-0.318,5.072,0.481,7.035,2.417C95.988,26.388,97.48,31.188,95.745,38.283z"/></svg>
