<svg xmlns="http://www.w3.org/2000/svg" xmlns:xlink="http://www.w3.org/1999/xlink" xmlns:a="http://ns.adobe.com/AdobeSVGViewerExtensions/3.0/" version="1.1" x="0px" y="0px" viewBox="-1.571 -2.22 100 125" enable-background="new -1.571 -2.22 100 100" xml:space="preserve"><path d="M69.364,17.799v-2.534c-6.337,1.005-13.436,1.567-20.936,1.567c-7.498,0-14.597-0.562-20.933-1.567v2.534h-7.647  L3.743,43.886h89.373L77.01,17.799H69.364z M30.166,36.174l6.583-10.661H60.11l6.583,10.661H30.166z"/><rect x="3.743" y="44.715" width="89.373" height="9.072"/><circle fill="#000000" cx="24.4" cy="34.076" r="2.155"/><circle fill="#000000" cx="28.71" cy="27.29" r="2.155"/><path d="M53.138,31.29c0,1.854-0.697,2.878-1.896,2.878c-1.065,0-1.796-0.998-1.813-2.801c0-1.837,0.799-2.835,1.906-2.835  C52.475,28.532,53.138,29.554,53.138,31.29z M50.177,31.375c0,1.417,0.437,2.222,1.106,2.222c0.747,0,1.107-0.88,1.107-2.273  c0-1.341-0.335-2.221-1.107-2.221C50.647,29.103,50.177,29.891,50.177,31.375z"/><path d="M53.87,33.64c0-0.302,0.21-0.528,0.504-0.528c0.292,0,0.494,0.217,0.494,0.528c0,0.303-0.202,0.528-0.512,0.528  C54.071,34.168,53.87,33.942,53.87,33.64z"/><path d="M59.18,31.29c0,1.854-0.697,2.878-1.896,2.878c-1.064,0-1.794-0.998-1.812-2.801c0-1.837,0.797-2.835,1.903-2.835  C58.517,28.532,59.18,29.554,59.18,31.29z M56.219,31.375c0,1.417,0.436,2.222,1.107,2.222c0.746,0,1.107-0.88,1.107-2.273  c0-1.341-0.337-2.221-1.107-2.221C56.689,29.103,56.219,29.891,56.219,31.375z"/><path d="M96.859,0c0,8.833-21.684,15.991-48.431,15.991C21.682,15.991,0,8.833,0,0H96.859z"/></svg>
