<svg xmlns="http://www.w3.org/2000/svg" xmlns:xlink="http://www.w3.org/1999/xlink" version="1.1" x="0px" y="0px" viewBox="0 0 100 125" enable-background="new 0 0 100 100" xml:space="preserve"><g><path fill="#000000" d="M85.665,66.445c0,8.631-3.059,15.561-8.17,20.621c-2.229-5.08-5.6-5.871-6.709-15.342   c-0.125-1.068-0.443-2.09-1.051-2.889c-3.715-4.891-1.465,8.984-6.369,3.279c-3.135-3.645-9.346-30.67-10.451-21.51   c-0.281,2.329-9.42,29.051-12.399,20.741c-1.45-4.07-2.81-7.57-4.17-8.92c-1.56-1.551-2.2,6.939-5.25,11.34   c-2.181,3.119-5.96,8.459-8.341,13.539c-5.26-5.08-8.42-12.09-8.42-20.859c0-7.65,8.746-19.802,12.74-25.68   c7.871-11.583,4.48-15.62,6.37-13.74c1.65,1.641,3.29,5.88,5.06,10.82c3.601,10.08,9.16-25.15,15.031-25.15   c4.199,0-3.547,6.134,12.66,26.08c3.051,3.756,5.287,0.516,4.449-2.955c-0.875-3.625,0.828-6.852,2.375-2.625   c0.418,1.14,1.797,3.858,2.186,5.11C78.271,48.195,85.665,56.445,85.665,66.445z"/></g></svg>
