<svg xmlns="http://www.w3.org/2000/svg" xmlns:xlink="http://www.w3.org/1999/xlink" version="1.1" x="0px" y="0px" viewBox="0 0 90 112.5" enable-background="new 0 0 90 90" xml:space="preserve"><g><path d="M87.668,42.23c-0.796-1.456-1.457-2.118-2.081-2.572c-0.625-0.455-1.97-0.947-2.631-1.949s-1.532-2.989-1.968-3.5   c-0.435-0.511-1.761-1.476-2.535-1.987c-0.776-0.511-2.023-1.4-2.459-2.574c-0.438-1.173-2.233-3.652-3.312-4.239   s-2.272-1.363-3.956-0.908c-1.684,0.454-3.159,1.42-3.934,1.911c-0.778,0.492-1.893,0.983-2.025,1.306   c-0.119,0.287,0.034,0.573,0.416,1.086c-0.245,0.18-0.472,0.341-0.568,0.406c-0.251,0.164-1.48,1.243-1.582,1.925   c-0.382-0.513-0.978-1.07-0.978-1.07s0.353-0.353,0.252-0.707c-0.103-0.353-1.014-1.674-1.014-1.674   c-1.781-1.149-6.231-1.522-9.003-1.645V25.85c1.776-0.785,3.097-2.407,3.461-4.366c0,0,0.295-0.882-5.672-0.904v-0.001   c-0.041,0-0.076,0-0.116,0c-0.038,0-0.076,0-0.115,0v0.001c-5.967,0.022-5.671,0.904-5.671,0.904   c0.365,1.959,1.686,3.582,3.459,4.366v0.271c-7.841,0.562-8.662,1.597-8.894,1.874c-0.252,0.303-1.211,1.313-1.211,1.666   s0.353,0.757,0.353,0.757c-0.554,0.656-1.361,2.724-1.714,3.885c-0.354,1.16-0.09,1.597-0.606,3.078   c-0.707,2.023-1.828,4.167-2.019,4.949c-0.253,1.03-0.102,3.629-0.151,4.083c-0.052,0.454-1.412,3.027-1.766,4.39   s-0.303,4.037-0.303,4.037s-0.637,1.497-1.039,2.364c-0.131-0.026-0.283,0.015-0.424,0.222c0,0,0,0.05-0.009,0.165   c-0.575-0.002-2.895-0.052-4.583-0.732c-2.097-0.845-4.265-1.958-5.452-3.971c-0.404-0.686-1.55-3.355-1.727-3.998   c-0.38-1.375-0.695-3-0.845-4.415c-0.53-5.021-0.96-6.462-2.195-9.213c-1.235-2.749-4.161-4.591-5.877-5.752   c-1.715-1.16-1.918-1.034-1.918-1.034s-1.944,0.177-3.557,1.766c0,0,3,0.582,4.945,1.892c1.941,1.313,3.857,2.675,4.617,5.728   c0.754,3.053,0.705,2.698,1.082,6.055c0.38,3.355,1.263,6.761,2.07,8.199c0.806,1.438,2.094,3.862,4.492,5.476   c2.394,1.614,6.025,2.342,8.525,2.886c-0.028,0.144-0.058,0.293-0.088,0.449c0,0,0.042,0.107,0.151,0.167   c-0.013,0.055-0.024,0.106-0.04,0.155c-0.25,0.908,0,2.826,0,2.826c0.709,1.009,3.938,2.926,5.1,3.28   c1.16,0.353,6.811,2.069,16.649,2.069S64.04,67.1,66.867,65.586c2.824-1.513,2.32-3.936,2.119-4.541s-0.455-0.807-0.455-0.807   c-0.252-3.784-1.361-5.652-1.514-6.105c-0.15-0.453,0.102-2.775-0.352-4.086c-0.455-1.312-1.716-3.684-1.868-4.39   c-0.151-0.707,0-3.028-0.303-3.885c-0.176-0.496-0.533-1.576-0.903-2.606c0.162,0.007,0.389-0.014,0.689-0.098   c0,0,0.566-0.374,0.301-1.169c-0.264-0.795-1.814-4.769-1.777-5.185c0.037-0.417-0.151-0.985,1.514-2.006l0.06-0.046   c0.218,0.427,0.562,1.024,0.849,1.144c0.453,0.189,1.21,0.264,1.93-0.795s1.931-2.309,2.574-2.006   c0.643,0.304,1.287,0.858,1.967,2.246c0.682,1.387,1.704,2.958,2.404,3.545c0.699,0.586,2.814,1.74,3.098,2.213   c0.284,0.472,0.686,1.817,1.707,3.028c1.021,1.211,2.1,2.157,3.103,2.687c1.004,0.531,1.458,0.889,1.477,1.457   c0.02,0.568-0.206,2.233,1.287,2.99c1.495,0.757,2.024,0.489,2.309,0.416c0.648-0.164,1.381-0.738,1.419-1.722   C88.537,44.88,88.462,43.688,87.668,42.23z M42.659,21.832c-0.083-0.014-0.138-0.093-0.122-0.175   c0.013-0.081,0.09-0.138,0.174-0.124c0.02,0.003,2.045,0.34,5.121,0.34c1.811,0,3.624-0.115,5.393-0.34   c0.007-0.001,0.013-0.002,0.018-0.002c0.076,0,0.142,0.058,0.151,0.133c0.005,0.04-0.004,0.079-0.029,0.112   c-0.025,0.032-0.062,0.053-0.102,0.057c-1.78,0.229-3.607,0.345-5.43,0.345C44.697,22.177,42.68,21.834,42.659,21.832z    M37.908,28.39c0.018-0.08,0.1-0.132,0.181-0.113c0.019,0.004,1.938,0.441,5.348,0.659c1.247,0.08,2.562,0.12,3.904,0.12   c3.448,0,7.025-0.262,10.624-0.782c0.006-0.001,0.015-0.001,0.021-0.001c0.074,0,0.138,0.054,0.149,0.129   c0.012,0.083-0.046,0.16-0.128,0.172c-3.615,0.521-7.204,0.785-10.667,0.785c-1.351,0-2.673-0.041-3.928-0.122   c-3.423-0.218-5.372-0.66-5.392-0.665C37.939,28.553,37.89,28.472,37.908,28.39z M36.169,30.4c0.023-0.078,0.108-0.125,0.188-0.103   c3.682,1.065,7.564,1.605,11.541,1.605c1.551,0,3.104-0.083,4.616-0.247c4.104-0.446,6.734-1.346,6.759-1.355   c0.076-0.027,0.168,0.017,0.192,0.094c0.014,0.038,0.014,0.079-0.006,0.115c-0.017,0.037-0.049,0.063-0.086,0.077   c-0.028,0.01-2.686,0.921-6.826,1.37c-1.521,0.167-3.088,0.25-4.647,0.25c-4.006,0-7.917-0.543-11.628-1.616   c-0.038-0.011-0.069-0.037-0.091-0.072C36.161,30.48,36.157,30.44,36.169,30.4z M35.5,38.461c0.018-0.081,0.104-0.13,0.183-0.11   c4.024,1.011,8.119,1.523,12.166,1.523c4.58,0,9.063-0.641,13.328-1.904c0.077-0.024,0.165,0.024,0.188,0.102   c0.024,0.081-0.021,0.165-0.102,0.188c-3.398,1.008-6.988,1.625-10.666,1.833c-0.917,0.052-1.845,0.078-2.762,0.078   c-4.084,0-8.198-0.513-12.227-1.525c-0.041-0.01-0.073-0.035-0.094-0.07C35.496,38.541,35.487,38.5,35.5,38.461z M68.08,62.739   c0.061-0.052,0.161-0.044,0.214,0.018c0.026,0.03,0.039,0.068,0.034,0.11c-0.004,0.04-0.021,0.077-0.052,0.103   c-2.673,2.276-9.604,4.573-19.07,4.573c-6.368,0-12.298-0.737-16.694-2.075c-1.182-0.36-3.657-1.521-4.382-2.557   c-0.023-0.033-0.031-0.073-0.025-0.112c0.01-0.04,0.03-0.076,0.064-0.098c0.065-0.046,0.164-0.029,0.211,0.037   c0.684,0.978,3.074,2.092,4.22,2.441c4.369,1.329,10.268,2.062,16.606,2.062c4.435,0,8.659-0.514,12.221-1.483   C64.335,64.964,66.761,63.863,68.08,62.739z M66.149,55.25c0.072-0.038,0.168-0.007,0.204,0.065   c0.039,0.073,0.01,0.165-0.064,0.205c-0.039,0.02-3.964,2.04-10.305,3.122c-2.671,0.456-5.415,0.688-8.156,0.688   c-1.067,0-2.149-0.036-3.22-0.106c-4.773-0.312-9.554-1.328-14.202-3.016c-0.078-0.028-0.118-0.115-0.089-0.193   c0.025-0.077,0.115-0.119,0.191-0.091c4.622,1.677,9.369,2.686,14.116,2.997c1.062,0.07,2.142,0.106,3.205,0.106   c2.721,0,5.445-0.229,8.097-0.682C62.234,57.268,66.111,55.27,66.149,55.25z M63.26,46.871c0.076-0.027,0.166,0.015,0.193,0.092   c0.013,0.038,0.011,0.079-0.005,0.115c-0.017,0.036-0.049,0.065-0.088,0.079c-2.549,0.91-6.692,2.075-11.95,2.461   c-1.188,0.088-2.396,0.132-3.589,0.132c-5.036,0-10.099-0.78-15.045-2.322c-0.08-0.025-0.126-0.11-0.101-0.19   c0.024-0.078,0.111-0.124,0.19-0.099c4.918,1.532,9.95,2.309,14.955,2.309c1.185,0,2.385-0.043,3.565-0.13   C56.613,48.933,60.728,47.774,63.26,46.871z"/></g></svg>
