<svg xmlns="http://www.w3.org/2000/svg" xmlns:xlink="http://www.w3.org/1999/xlink" version="1.1" x="0px" y="0px" viewBox="0 0 100 125" enable-background="new 0 0 100 100" xml:space="preserve"><g><path fill="#000000" d="M39,25.25c6.686,0,12.125-5.439,12.125-12.125S45.686,1,39,1S26.875,6.439,26.875,13.125   S32.314,25.25,39,25.25z M39,6c3.929,0,7.125,3.196,7.125,7.125S42.929,20.25,39,20.25s-7.125-3.196-7.125-7.125S35.071,6,39,6z"/><path fill="#000000" d="M25.125,21.125C25.125,16.093,21.032,12,16,12s-9.125,4.093-9.125,9.125S10.968,30.25,16,30.25   S25.125,26.157,25.125,21.125z M11.875,21.125C11.875,18.851,13.726,17,16,17s4.125,1.851,4.125,4.125S18.274,25.25,16,25.25   S11.875,23.399,11.875,21.125z"/><path fill="#000000" d="M78.87,43.709c0.397-1.464,0.63-2.996,0.63-4.584c0-9.649-7.852-17.5-17.5-17.5   c-7.422,0-13.764,4.653-16.304,11.188c-3.562-2.62-7.944-4.188-12.696-4.188c-11.855,0-21.5,9.645-21.5,21.5   c0,11.855,9.645,21.5,21.5,21.5c1.572,0,3.101-0.182,4.578-0.502C38.608,85.908,50.958,97.625,66,97.625   c15.715,0,28.5-12.785,28.5-28.5C94.5,58.04,88.134,48.419,78.87,43.709z M62,26.625c6.893,0,12.5,5.607,12.5,12.5   c0,0.93-0.109,1.834-0.305,2.707c-2.598-0.782-5.348-1.207-8.195-1.207c-4.498,0-8.754,1.051-12.541,2.915   c-0.814-2.525-2.086-4.846-3.714-6.869C50.889,30.95,55.947,26.625,62,26.625z M37.683,65.938c-1.486,0.44-3.055,0.688-4.683,0.688   c-9.098,0-16.5-7.402-16.5-16.5c0-9.098,7.402-16.5,16.5-16.5c4.49,0,8.562,1.808,11.539,4.727c1.06,1.039,1.972,2.223,2.723,3.514   c0.787,1.353,1.382,2.825,1.76,4.385c0.05,0.208,0.111,0.413,0.154,0.625c0.144,0.716,0.224,1.454,0.271,2.2   c0.022,0.349,0.053,0.695,0.053,1.05c0,0.392-0.032,0.774-0.059,1.159c-0.032,0.451-0.083,0.896-0.151,1.337   c-0.637,4.167-2.824,7.826-5.97,10.356c-0.914,0.735-1.911,1.367-2.969,1.896C39.5,65.302,38.61,65.663,37.683,65.938z M66,92.625   c-12.872,0-23.355-10.404-23.494-23.245c5.781-2.866,10.1-8.239,11.5-14.706c0.186-0.859,0.321-1.736,0.4-2.631   c0.057-0.633,0.096-1.271,0.096-1.918c0-0.359-0.037-0.709-0.055-1.064c0,0-0.002,0-0.002-0.001c-0.006-0.125-0.01-0.25-0.02-0.375   c3.42-1.943,7.367-3.06,11.573-3.06c2.114,0,4.165,0.286,6.116,0.812c0.846,0.228,1.671,0.504,2.476,0.821   c0.781,0.308,1.543,0.656,2.281,1.043C84.37,52.232,89.5,60.089,89.5,69.125C89.5,82.083,78.958,92.625,66,92.625z"/></g></svg>
