<svg xmlns="http://www.w3.org/2000/svg" xmlns:xlink="http://www.w3.org/1999/xlink" version="1.1" x="0px" y="0px" viewBox="15.917 -15.917 100 125" enable-background="new 15.917 -15.917 100 100" xml:space="preserve"><g><g><path d="M64.391,30.942c-3.369,0-20.173-0.317-20.173-6.577c0-6.26,16.804-6.577,20.173-6.577s20.176,0.317,20.176,6.577    C84.566,30.625,67.76,30.942,64.391,30.942z M49.047,24.366c1.873,0.971,7.166,2.29,15.344,2.29c8.18,0,13.473-1.319,15.346-2.29    c-1.873-0.972-7.166-2.291-15.346-2.291C56.213,22.075,50.92,23.394,49.047,24.366z"/></g><g><path d="M64.391,48.416c-6.557,0-17.654-1.084-17.654-5.149c0-4.064,11.098-5.149,17.654-5.149s17.656,1.084,17.656,5.149    C82.047,47.332,70.947,48.416,64.391,48.416z M64.391,40.26c-9.65,0-15.309,1.99-15.511,3.013c0.203,1.01,5.861,3,15.511,3    c9.652,0,15.311-1.99,15.514-3.013C79.701,42.25,74.043,40.26,64.391,40.26z"/></g><g><path d="M71.398,13.298c-6.426,0-18.582-1.124-18.582-5.376c0-3.715,9.137-4.849,13.066-5.164c0.594-0.05,1.105,0.393,1.152,0.983    c0.049,0.59-0.393,1.106-0.98,1.154C57.617,5.571,54.959,7.45,54.959,7.922c0,0.938,5.762,3.233,16.439,3.233    c6.08,0,11.723-0.788,14.729-2.058c0.545-0.231,1.174,0.025,1.404,0.57c0.229,0.545-0.025,1.174-0.57,1.404    C83.66,12.466,77.842,13.298,71.398,13.298z"/></g><g><g><g><polygon points="64.393,1.441 65.451,3.808 64.48,6.212 70.088,3.721     "/></g></g></g><g><path d="M64.424,74.073c-9.625,0-16.484-3.624-18.135-5.277c-1.335-1.335-2.071-3.112-2.071-5.002V24.366h4.286v39.428    c0,0.745,0.29,1.445,0.817,1.971c0.659,0.622,6.26,4.022,15.104,4.022c10.582,0,15.018-3.962,15.059-4.002    c0.514-0.514,0.797-1.197,0.797-1.924V24.366h4.287v39.496c0,1.871-0.73,3.631-2.055,4.954    C80.693,70.635,74.574,74.073,64.424,74.073z"/></g><g><path d="M58.805,55.803c-0.27,0-0.547-0.052-0.812-0.161c-1.096-0.449-1.619-1.702-1.17-2.796l23.57-57.422    c0.449-1.095,1.703-1.617,2.795-1.169c1.096,0.45,1.619,1.702,1.17,2.796L60.789,54.473    C60.447,55.301,59.648,55.803,58.805,55.803z"/></g></g></svg>
