<svg xmlns:dc="http://purl.org/dc/elements/1.1/" xmlns:cc="http://creativecommons.org/ns#" xmlns:rdf="http://www.w3.org/1999/02/22-rdf-syntax-ns#" xmlns:svg="http://www.w3.org/2000/svg" xmlns="http://www.w3.org/2000/svg" xmlns:xlink="http://www.w3.org/1999/xlink" xmlns:sodipodi="http://sodipodi.sourceforge.net/DTD/sodipodi-0.dtd" xmlns:inkscape="http://www.inkscape.org/namespaces/inkscape" version="1.1" x="0px" y="0px" viewBox="0 0 100 125"><title>Icon of a watch</title><g><path style="" d="M 37 5 L 37 28.65625 C 40.788014 26.345534 45.238193 25 50 25 C 54.761807 25 59.211986 26.345534 63 28.65625 L 63 5 L 37 5 z M 37 71.34375 L 37 95 L 63 95 L 63 71.34375 C 59.211986 73.654466 54.761807 75 50 75 C 45.238193 75 40.788014 73.654466 37 71.34375 z " fill="#000000" fill-opacity="1" stroke="none"/><path style="" d="M 74.8125,47 C 74.929906,47.982675 75,48.985708 75,50 c 0,1.014292 -0.07009,2.017325 -0.1875,3 L 79,53 79,47 z" fill="#000000" fill-opacity="1" stroke="none"/><path transform="matrix(0.92,0,0,1.0222222,4,1.444446)" style="" d="m 75,47.5 a 25,22.5 0 1 1 -50,0 25,22.5 0 1 1 50,0 z" fill="#000000" fill-opacity="1" stroke="none"/><path style="" d="m 45,50 a 2.5,5 0 1 1 -5,0 2.5,5 0 1 1 5,0 z" transform="matrix(0.8,0,0,0.4,16,11)" fill="#ffffff" fill-opacity="1" stroke="none"/><path style="" d="m 45,50 a 2.5,5 0 1 1 -5,0 2.5,5 0 1 1 5,0 z" transform="matrix(0.8,0,0,0.4,16,49)" fill="#ffffff" fill-opacity="1" stroke="none"/><path style="" d="m 45,50 a 2.5,5 0 1 1 -5,0 2.5,5 0 1 1 5,0 z" transform="matrix(0.8,0,0,0.4,-3,30)" fill="#ffffff" fill-opacity="1" stroke="none"/><path style="" d="m 45,50 a 2.5,5 0 1 1 -5,0 2.5,5 0 1 1 5,0 z" transform="matrix(0.8,0,0,0.4,35,30)" fill="#ffffff" fill-opacity="1" stroke="none"/><rect style="" width="3" height="14" x="48.5" y="37.5" rx="1.5" fill="#ffffff" fill-opacity="1" stroke="none"/><rect style="" width="1.9999964" height="15.999914" x="-19.3016" y="67.302528" rx="0.99999821" transform="matrix(0.49999732,-0.86602695,0.86602386,0.50000268,0,0)" fill="#ffffff" fill-opacity="1" stroke="none"/><rect style="" width="1" height="17" x="-68.801682" y="-18.80085" rx="0.5" transform="matrix(-0.5,-0.8660254,-0.8660254,0.5,0,0)" fill="#ffffff" fill-opacity="1" stroke="none"/></g></svg>
