<svg xmlns="http://www.w3.org/2000/svg" xmlns:xlink="http://www.w3.org/1999/xlink" version="1.1" x="0px" y="0px" viewBox="0 0 100 125" style="enable-background:new 0 0 100 100;" xml:space="preserve"><g><path d="M23.3,76.7L23.3,76.7c-1.2-0.4-1.9-1.8-1.5-3l2.9-8.8c0.4-1.2,1.8-1.9,3-1.5l0,0c1.2,0.4,1.9,1.8,1.5,3l-2.9,8.8   C25.9,76.4,24.5,77.1,23.3,76.7z"/><ellipse cx="40.6" cy="34.4" rx="2.2" ry="1.1"/><ellipse cx="46.8" cy="34.4" rx="2.2" ry="1.1"/><ellipse cx="53" cy="34.4" rx="2.2" ry="1.1"/><ellipse transform="matrix(0.8782 -0.4784 0.4784 0.8782 -9.219 32.5379)" cx="59.3" cy="34.4" rx="2.2" ry="1.1"/><ellipse cx="42" cy="43.4" rx="2.2" ry="1.1"/><ellipse cx="48.2" cy="43.4" rx="2.2" ry="1.1"/><ellipse cx="49.9" cy="47.2" rx="2.2" ry="1.1"/><ellipse transform="matrix(0.8093 0.5874 -0.5874 0.8093 35.7078 -23.1234)" cx="53.5" cy="43.4" rx="2.2" ry="1.1"/><ellipse transform="matrix(0.8093 0.5874 -0.5874 0.8093 36.1842 -16.9659)" cx="44.2" cy="47.2" rx="2.2" ry="1.1"/><ellipse cx="58.7" cy="43.4" rx="2.2" ry="1.1"/><ellipse cx="56.2" cy="47.2" rx="2.2" ry="1.1"/><ellipse cx="41.4" cy="39" rx="2.2" ry="1.1"/><path d="M49.8,37.7c0.2,0.6-0.5,1.4-1.7,2c-1.1,0.6-2.2,0.6-2.3,0s0.5-1.4,1.7-2C48.5,37.1,49.6,37.1,49.8,37.7z"/><ellipse cx="53.7" cy="38.6" rx="2.2" ry="1.1"/><ellipse cx="59.6" cy="38.7" rx="2.2" ry="1.1"/><g><path d="M55.7,80.5H44.1c-2.1,0-3.8-1.7-3.8-3.8v-3.1h19.1v3.1C59.4,78.8,57.8,80.5,55.7,80.5z"/></g><path d="M79.8,82.9h-35v2c0,2.7,2.2,5,5,5l30,3c2.8,0,5-2.2,5-5S82.5,82.9,79.8,82.9z"/><g><path d="M49.6,91.9c-1.8,0-3.4-0.7-4.6-1.9H31.1c-0.1,0-0.2,0-0.2,0c-0.6,0-0.9-0.5-1.2-0.8c-0.4-0.6-0.7-1.7-0.3-2.7l7.2-21.3    c0.3-0.8,0.6-1.8,0.7-3c0.1-1.2,1.2-2.1,2.5-2.1h5.7c-0.7,0.2-1.2,0.9-1.2,1.8l1.8,6.4c0,1,0.7,1.8,1.6,1.8H52    c0.9,0,1.6-0.8,1.6-1.8l1.8-6.4c0-0.9-0.5-1.6-1.2-1.8h6.1c1.3,0,2.3,0.9,2.5,2.1c0.1,0.6,0.2,1.4,0.4,2.3l5.2,16.5h5.2l-5.7-18    c-0.1-0.4-0.2-0.8-0.2-1.3c-0.3-3.7-3.5-6.6-7.4-6.6h-0.7c3.8,0,6.9-4.1,6.9-9.1L73.7,15h1.2c2.8,0,5-2.3,5-5s-2.3-5-5-5H67H32.5    h-7.9c-2.8,0-5,2.3-5,5s2.3,5,5,5h1.2l7.7,30.9c0,5,3.1,9.1,6.9,9.1h-0.8c-3.9,0-7.1,2.9-7.4,6.6c-0.1,0.7-0.2,1.3-0.4,1.9    l-7.2,21.3c-1.5,4.6,1.3,9.7,5.8,10.1c0.2,0,0.5,0,0.7,0h37.2c0.2,0,0.5,0,0.7,0c1-0.1,1.9-0.4,2.7-0.9L49.6,91.9z M38.5,45.9    v-0.6l-0.1-0.6L30.9,15h37.6l-7,29.8l-0.1,0.6v0.6c0,2.5-1.3,4.1-1.9,4.1H40.4C39.8,50,38.5,48.5,38.5,45.9z"/></g></g></svg>
