<svg xmlns:dc="http://purl.org/dc/elements/1.1/" xmlns:cc="http://creativecommons.org/ns#" xmlns:rdf="http://www.w3.org/1999/02/22-rdf-syntax-ns#" xmlns:svg="http://www.w3.org/2000/svg" xmlns="http://www.w3.org/2000/svg" version="1.1" viewBox="0 0 100 125" x="0px" y="0px"><g transform="translate(0,-952.36216)"><path d="m 51.539263,957.36216 c 2.425542,5.90647 4.775929,11.84001 5.591375,18.3874 0.984032,7.90046 -0.319513,16.60706 -5.990125,26.59404 -9.90451,17.4441 -4.525779,33.4915 0.769631,45.0186 a 32.639658,45.102073 0 0 0 30.729514,-45.0095 32.639658,45.102073 0 0 0 -31.100395,-44.99054 z m -5.025796,0.20415 a 32.639658,45.102073 0 0 0 -29.153125,44.78679 32.639658,45.102073 0 0 0 29.282972,44.861 c -5.179427,-11.9744 -9.911869,-29.1222 0.361766,-47.21624 5.251923,-9.2502 6.286707,-16.6664 5.41524,-23.66339 -0.784966,-6.30195 -3.272607,-12.36557 -5.90671,-18.76816 z" style="opacity:1;fill:#000000;fill-opacity:1;stroke:none;stroke-width:2;stroke-linecap:round;stroke-linejoin:round;stroke-miterlimit:4;stroke-dasharray:none;stroke-dashoffset:0;stroke-opacity:1"/></g></svg>
