<svg xmlns="http://www.w3.org/2000/svg" xmlns:xlink="http://www.w3.org/1999/xlink" xmlns:sketch="http://www.bohemiancoding.com/sketch/ns" viewBox="0 0 36 55" version="1.1" x="0px" y="0px"><title>trash_delete_</title><description>Created with Sketch (http://www.bohemiancoding.com/sketch)</description><g stroke="none" stroke-width="1" fill="none" fill-rule="evenodd" sketch:type="MSPage"><path d="M1,5 C1,5 1.43101543e-06,5 0,6 C-8.28522047e-07,7 1,7 1,7 L34.9087481,7 C34.9087481,7 35.9087481,7 35.9087481,6 C35.9087472,5 34.9087481,5 34.9087481,5 L1,5 Z M4.94750977,44 L1.94750977,9 L3.94547175,9 L6.94750977,42 L28.9475098,42 L31.9475098,9 L33.9475098,9 L30.9475098,44 L4.94750977,44 Z M14.9475098,0 C12.9475098,0 13,2 13,2 L13,3 L14.9475098,3 L14.9475098,2 L21,2 L21,3 L22.9475098,3 L22.9475098,2 C22.9475098,2 22.9475098,0 20.9475098,0 L14.9475098,0 Z M9.48461914,9 L10.9475098,39 L12.9475098,39 L11.4846191,9 L9.48461914,9 Z M24.5010986,9 L22.9475098,39 L24.9475098,39 L26.5010986,9 L24.5010986,9 Z M16.9475098,9 L16.9475098,39 L18.9475098,39 L18.9475098,9 L16.9475098,9 Z M16.9475098,9" fill="#000000" sketch:type="MSShapeGroup"/></g><text x="0" y="59" fill="#000000" font-size="5px" font-weight="bold" font-family="'Helvetica Neue', Helvetica, Arial-Unicode, Arial, Sans-serif">Created by Pham Thi Dieu Linh</text><text x="0" y="64" fill="#000000" font-size="5px" font-weight="bold" font-family="'Helvetica Neue', Helvetica, Arial-Unicode, Arial, Sans-serif">from the Noun Project</text></svg>