<svg xmlns="http://www.w3.org/2000/svg" xmlns:xlink="http://www.w3.org/1999/xlink" version="1.1" x="0px" y="0px" viewBox="0 0 90 112.5" enable-background="new 0 0 90 90" xml:space="preserve"><path d="M66.779,78.65c-0.492-1.205-5.256-2.245-5.256-2.245l-0.328-0.548c-0.549-1.205-2.957-1.971-2.957-1.971s0-42.274,0-43.698  c0-0.089-0.026-0.156-0.04-0.234c-0.896,1.151-7.557,2.042-13.145,2.042c-5.628,0-12.338-0.889-13.25-2.04  c-0.013,0.077-0.04,0.143-0.04,0.231c0,1.424,0,43.698,0,43.698s-2.41,0.768-2.957,1.971l-0.328,0.548c0,0-4.766,1.04-5.258,2.245  c-0.492,1.205,0,1.424,0,1.424l7.885,3.23l0.219,1.204c0,0,3.584,3.013,13.676,3.013c10.09,0,13.674-3.013,13.674-3.013l0.22-1.204  l7.885-3.23C66.779,80.074,67.273,79.855,66.779,78.65z M42.301,40.24c1.209,0,2.189,0.983,2.189,2.19  c0,1.208-0.98,2.191-2.189,2.191c-1.207,0-2.191-0.983-2.191-2.191S41.094,40.24,42.301,40.24z M42.301,49.898  c1.209,0,2.189,0.982,2.189,2.189c0,1.208-0.98,2.189-2.189,2.189c-1.207,0-2.191-0.981-2.191-2.189  C40.11,50.881,41.094,49.898,42.301,49.898z M42.301,59.557c1.209,0,2.189,0.983,2.189,2.19s-0.98,2.19-2.189,2.19  c-1.207,0-2.191-0.982-2.191-2.19S41.094,59.557,42.301,59.557z M42.301,69.214c1.209,0,2.189,0.983,2.189,2.19  s-0.98,2.19-2.189,2.19c-1.207,0-2.191-0.983-2.191-2.19C40.11,70.195,41.094,69.214,42.301,69.214z M30.145,76.311  c0,1.369,6.057,2.834,15.072,2.834c9.018,0,15.072-1.465,15.072-2.834h0.328c0,1.979-7.83,3.162-15.4,3.162  c-7.57,0-15.4-1.183-15.4-3.162H30.145z M55.372,83.416c-0.083,0.004-0.233,0.007-0.442,0.007c-3.324,0-21.705-0.597-22.662-0.665  c-1.17-0.083-7.754-3.646-8.033-3.798l0.156-0.289c1.889,1.024,6.986,3.694,7.9,3.761c1.016,0.072,21.703,0.742,23.061,0.656  c1.104-0.068,6.256-2.076,10.707-3.93l0.125,0.303C64.012,80.366,56.814,83.326,55.372,83.416z"/><path d="M42.301,63.607c1.027,0,1.861-0.834,1.861-1.861s-0.834-1.862-1.861-1.862c-1.027,0-1.861,0.835-1.861,1.862  S41.274,63.607,42.301,63.607z M42.149,61.664h-0.193l-0.09-0.209l0.607-0.713c0.09-0.106,0.172-0.182,0.172-0.182v-0.008  c0,0-0.082,0.012-0.236,0.012h-0.941v-0.338h1.662v0.248l-0.754,0.87c0.365,0.04,0.814,0.276,0.814,0.816  c0,0.478-0.375,0.894-0.947,0.894c-0.566,0-0.9-0.377-0.9-0.377l0.21-0.297c0,0,0.273,0.303,0.676,0.303  c0.311,0,0.566-0.207,0.566-0.508C42.795,61.834,42.49,61.664,42.149,61.664z"/><path d="M42.301,53.95c1.027,0,1.861-0.835,1.861-1.862s-0.834-1.861-1.861-1.861c-1.027,0-1.861,0.834-1.861,1.861  S41.274,53.95,42.301,53.95z M42.254,50.887c-0.367,0-0.564,0.355-0.564,0.355l-0.287-0.193c0,0,0.252-0.527,0.879-0.527  c0.512,0,0.879,0.318,0.879,0.799c0,0.914-1.328,1.057-1.336,1.69h1.379v0.339H41.41c-0.012-0.074-0.021-0.146-0.021-0.213  c0-0.994,1.365-1.135,1.365-1.789C42.754,51.072,42.545,50.887,42.254,50.887z"/><path fill="none" d="M45.258,19.857c-1.207,0-2.189,0.983-2.189,2.191c0,1.207,0.982,2.19,2.189,2.19s2.191-0.983,2.191-2.19  C47.449,20.84,46.465,19.857,45.258,19.857z M45.258,23.909c-1.025,0-1.861-0.835-1.861-1.861c0-1.027,0.836-1.862,1.861-1.862  c1.027,0,1.861,0.835,1.861,1.862C47.119,23.074,46.285,23.909,45.258,23.909z"/><path fill="none" d="M45.508,10.868h-0.346l-0.666,0.647l0.236,0.244l0.26-0.256c0.102-0.099,0.133-0.162,0.133-0.162h0.01  c0,0-0.004,0.087-0.004,0.174v1.797h-0.615h-0.001v0.339h1.6v-0.339h-0.607V10.868z"/><path fill="none" d="M46.118,21.28c0-0.481-0.367-0.8-0.879-0.8c-0.627,0-0.879,0.528-0.879,0.528l0.287,0.193  c0,0,0.197-0.355,0.562-0.355c0.293,0,0.502,0.185,0.502,0.461c0,0.655-1.363,0.796-1.363,1.789c0,0.067,0.007,0.137,0.02,0.214  h1.793v-0.339h-1.379C44.79,22.336,46.118,22.194,46.118,21.28z"/><path fill="none" d="M45.258,10.199c-1.207,0-2.189,0.982-2.189,2.19s0.982,2.191,2.189,2.191s2.191-0.983,2.191-2.191  C47.449,11.182,46.465,10.199,45.258,10.199z M45.258,14.251c-1.025,0-1.861-0.836-1.861-1.863c0-1.026,0.836-1.861,1.861-1.861  c1.027,0,1.861,0.835,1.861,1.861C47.119,13.415,46.285,14.251,45.258,14.251z"/><path d="M45.258,20.186c-1.025,0-1.861,0.835-1.861,1.862c0,1.026,0.836,1.861,1.861,1.861c1.027,0,1.861-0.835,1.861-1.861  C47.119,21.021,46.285,20.186,45.258,20.186z M46.161,23.31h-1.793c-0.013-0.077-0.02-0.147-0.02-0.214  c0-0.993,1.363-1.134,1.363-1.789c0-0.276-0.209-0.461-0.502-0.461c-0.365,0-0.562,0.355-0.562,0.355l-0.287-0.193  c0,0,0.252-0.528,0.879-0.528c0.512,0,0.879,0.319,0.879,0.8c0,0.914-1.328,1.056-1.336,1.691h1.379V23.31z"/><path d="M45.258,10.527c-1.025,0-1.861,0.835-1.861,1.861c0,1.027,0.836,1.863,1.861,1.863c1.027,0,1.861-0.836,1.861-1.863  C47.119,11.362,46.285,10.527,45.258,10.527z M46.115,13.651h-1.6v-0.339h0.001h0.615v-1.797c0-0.087,0.004-0.174,0.004-0.174h-0.01  c0,0-0.031,0.063-0.133,0.162l-0.26,0.256l-0.236-0.244l0.666-0.647h0.346v2.444h0.607V13.651z"/><path d="M59.441,3.025C55.498,2.478,45,2.478,45,2.478s-10.498,0-14.441,0.548c-3.941,0.547-3.834,1.752-2.629,1.972  c1.205,0.219,5.695,0,5.695,0v23.877c0,0-1.386-0.078-1.763,0.82h0.158c0,0.659,5.635,1.973,13.033,1.973  c7.337,0,12.925-1.314,12.925-1.973h0.162c-0.378-0.897-1.766-0.82-1.766-0.82h-0.002V4.997c0,0,4.492,0.219,5.697,0  C63.273,4.778,63.382,3.573,59.441,3.025z M45.258,10.199c1.207,0,2.191,0.983,2.191,2.19c0,1.208-0.984,2.191-2.191,2.191  s-2.189-0.983-2.189-2.191S44.051,10.199,45.258,10.199z M45.258,19.857c1.207,0,2.191,0.983,2.191,2.191  c0,1.207-0.984,2.19-2.191,2.19s-2.189-0.983-2.189-2.19C43.069,20.84,44.051,19.857,45.258,19.857z"/><path d="M42.301,44.292c1.027,0,1.861-0.835,1.861-1.862c0-1.026-0.834-1.861-1.861-1.861c-1.027,0-1.861,0.835-1.861,1.861  C40.44,43.457,41.274,44.292,42.301,44.292z M42.203,40.909h0.348v2.444h0.607v0.339h-1.6v-0.338h0.001h0.613v-1.797  c0-0.087,0.004-0.175,0.004-0.175h-0.008c0,0-0.031,0.063-0.133,0.163L41.773,41.8l-0.236-0.244L42.203,40.909z"/><path d="M42.576,71.59v-1.013c0-0.132,0.016-0.276,0.016-0.276h-0.008c0,0-0.062,0.131-0.139,0.229l-0.787,1.054v0.008L42.576,71.59  L42.576,71.59z"/><path d="M42.301,73.266c1.027,0,1.861-0.834,1.861-1.861c0-1.026-0.834-1.861-1.861-1.861c-1.027,0-1.861,0.835-1.861,1.861  C40.44,72.432,41.274,73.266,42.301,73.266z M41.228,71.677L41.228,71.677l1.284-1.793h0.447v1.707h0.379v0.331h-0.379v0.744h-0.383  v-0.744h-1.348V71.677z"/><path fill="#000000" d="M31.692,29.695c0,0.089,0.043,0.176,0.112,0.263c0.016-0.091,0.026-0.187,0.058-0.263H31.692z"/><path fill="#000000" d="M58.307,29.695h-0.166c0.031,0.076,0.041,0.17,0.058,0.26C58.265,29.87,58.307,29.783,58.307,29.695z"/></svg>
