<?xml version="1.0" encoding="utf-8"?>
<!-- Generator: Adobe Illustrator 14.0.0, SVG Export Plug-In . SVG Version: 6.00 Build 43363)  -->
<!DOCTYPE svg PUBLIC "-//W3C//DTD SVG 1.1//EN" "http://www.w3.org/Graphics/SVG/1.1/DTD/svg11.dtd">
<svg version="1.1" id="Layer_1" xmlns="http://www.w3.org/2000/svg" xmlns:xlink="http://www.w3.org/1999/xlink" x="0px" y="0px"
	 width="600px" height="600px" viewBox="0 0 600 600" enable-background="new 0 0 600 600" xml:space="preserve">
<path fill="#999999" d="M536.79,275.208H324.792V63.21c0-13.692-11.1-24.792-24.792-24.792c-13.692,0-24.792,11.1-24.792,24.792
	v211.998H63.21c-13.692,0-24.792,11.1-24.792,24.792c0,13.691,11.1,24.792,24.792,24.792h211.998V536.79
	c0,13.692,11.1,24.792,24.792,24.792c13.692,0,24.792-11.1,24.792-24.792V324.792H536.79c13.692,0,24.792-11.101,24.792-24.792
	C561.582,286.308,550.488,275.208,536.79,275.208z"/>
</svg>
