<?xml version="1.0" standalone="no"?>
<!DOCTYPE svg PUBLIC "-//W3C//DTD SVG 20010904//EN"
 "http://www.w3.org/TR/2001/REC-SVG-20010904/DTD/svg10.dtd">
<svg version="1.0" xmlns="http://www.w3.org/2000/svg"
 width="1175.000000pt" height="1175.000000pt" viewBox="0 0 1175.000000 1175.000000"
 preserveAspectRatio="xMidYMid meet">
<metadata>
Created by potrace 1.11, written by Peter Selinger 2001-2013
</metadata>
<g transform="translate(0.000000,1175.000000) scale(0.100000,-0.100000)"
fill="#000000" stroke="none">
<path d="M344 10801 c-17 -10 -36 -32 -42 -47 -10 -22 -12 -959 -9 -4014 2
-2192 7 -4005 11 -4030 7 -39 50 -245 61 -290 6 -28 64 -195 80 -235 27 -64
109 -226 138 -272 15 -24 27 -47 27 -52 0 -5 3 -11 7 -13 5 -1 26 -30 48 -63
233 -348 635 -652 1045 -789 67 -22 142 -44 162 -46 4 -1 22 -6 40 -11 49 -14
193 -37 278 -46 101 -9 4481 -9 4594 1 49 4 92 9 95 10 3 2 30 7 60 10 29 4
57 8 61 11 3 2 17 6 31 9 322 61 716 264 957 491 388 364 602 771 676 1286 12
81 18 215 19 392 l0 188 28 19 c15 11 29 20 32 20 9 0 257 153 381 235 108 71
434 311 498 367 14 13 43 37 65 54 260 213 588 551 824 849 111 141 379 529
379 550 0 2 15 28 33 58 51 84 53 86 117 211 181 350 323 738 404 1103 19 87
37 175 40 196 3 20 9 54 12 75 3 20 7 44 9 52 2 8 7 42 10 75 3 33 8 74 10 91
24 174 24 675 1 800 -2 11 -7 44 -11 74 -59 465 -233 912 -462 1185 -132 157
-209 220 -454 368 -307 185 -507 250 -774 251 -69 0 -239 -11 -274 -18 -12 -3
-42 -8 -65 -10 -22 -3 -52 -8 -66 -11 -14 -2 -74 -14 -135 -26 -60 -11 -165
-34 -232 -50 -67 -15 -132 -31 -145 -33 -13 -3 -67 -17 -121 -31 -54 -14 -100
-25 -102 -25 -2 0 -6 234 -7 520 l-3 520 -28 27 -27 28 -4123 2 c-4019 3
-4123 2 -4153 -16z m9596 -1736 c440 -99 752 -490 817 -1025 17 -143 9 -428
-18 -600 -43 -284 -183 -756 -320 -1085 -66 -158 -217 -470 -251 -517 -11 -16
-16 -28 -12 -28 3 0 2 -6 -4 -13 -6 -7 -41 -62 -77 -123 -54 -89 -197 -296
-251 -364 -150 -187 -388 -425 -539 -538 -60 -45 -114 -85 -120 -90 -75 -60
-433 -242 -476 -242 -5 0 -9 786 -9 1829 l0 1829 34 79 c123 288 291 536 462
684 77 66 84 71 150 112 61 37 167 81 221 92 124 26 274 26 393 0z"/>
</g>
</svg>
